<svg width="166" height="69" viewBox="0 0 166 69" fill="none" xmlns="http://www.w3.org/2000/svg">
<path d="M90.893 47.2335C90.2411 46.0966 89.6196 45.0163 89.0011 43.9338C86.3229 39.2494 83.6432 34.565 80.9732 29.8755C80.8492 29.6575 80.7126 29.5987 80.4765 29.5994C78.3975 29.6061 76.3192 29.5994 74.2402 29.598C65.2322 29.5935 56.2249 29.592 47.2169 29.586C40.9813 29.5823 34.7451 29.5704 28.5095 29.5734C28.1836 29.5734 28.0774 29.5079 28.0781 29.1545C28.0885 19.5834 28.0893 10.0131 28.0781 0.441949C28.0781 0.0766343 28.1739 0.000744022 28.5266 0.000744022C64.3835 0.0104163 100.242 0.0104163 136.1 0C136.488 0 136.562 0.107883 136.561 0.473942C136.551 9.97064 136.551 19.4666 136.561 28.9633C136.561 29.3294 136.462 29.4067 136.111 29.406C131.595 29.3933 127.078 29.4 122.561 29.3971C115.508 29.3926 108.456 29.3889 101.403 29.3688C101.057 29.3681 100.907 29.4997 100.755 29.7706C97.5481 35.4653 94.3338 41.1556 91.121 46.8466C91.0608 46.9538 90.9962 47.0579 90.8923 47.2335H90.893ZM52.0691 14.4705C52.0691 16.6646 52.0743 18.8595 52.0632 21.0536C52.0617 21.3549 52.1389 21.4643 52.4545 21.4583C53.5058 21.4405 54.558 21.4383 55.6093 21.4591C55.9479 21.4658 56.0222 21.349 56.0185 21.032C56.0029 19.6682 56.0118 18.3044 56.0118 16.9406C56.0118 16.6128 56.1692 16.4486 56.484 16.4481C56.8679 16.4481 57.2525 16.4674 57.6341 16.4422C57.9393 16.4221 58.1294 16.5307 58.3143 16.7755C59.4243 18.2494 60.5522 19.7092 61.6734 21.1749C61.787 21.3229 61.8879 21.4576 62.1151 21.4561C63.4516 21.4464 64.7882 21.4524 66.1239 21.4494C66.2026 21.4494 66.3147 21.4896 66.3496 21.3825C66.3793 21.2909 66.2902 21.227 66.239 21.1615C65.8729 20.6928 65.5047 20.2262 65.1371 19.759C64.2951 18.6884 63.4598 17.6118 62.6067 16.55C62.4077 16.3023 62.4552 16.2175 62.7388 16.1378C62.9995 16.0649 63.2541 15.9593 63.4984 15.8425C66.1239 14.591 66.8278 11.2957 64.8928 9.19909C63.8014 8.0161 62.3654 7.58159 60.8024 7.56968C58.0188 7.54885 55.2344 7.5682 52.45 7.55703C52.133 7.55555 52.0602 7.6612 52.0617 7.96104C52.0728 10.1306 52.0676 12.3002 52.0676 14.4697L52.0691 14.4705ZM107.67 21.4636C109.748 21.4636 111.827 21.4576 113.905 21.4703C114.214 21.4725 114.308 21.3869 114.298 21.0759C114.276 20.3453 114.294 19.6132 114.29 18.8818C114.286 18.2992 114.376 18.3431 113.758 18.3424C111.085 18.3409 108.413 18.3424 105.741 18.3416C105.271 18.3416 105.273 18.3402 105.355 17.8617C105.441 17.361 105.54 16.8618 105.6 16.3588C105.641 16.0248 105.743 15.8893 106.123 15.8931C108.498 15.9154 110.874 15.8968 113.249 15.9124C113.603 15.9146 113.689 15.7993 113.678 15.469C113.656 14.8373 113.651 14.2041 113.68 13.5732C113.696 13.2057 113.599 13.0874 113.21 13.0911C110.848 13.1104 108.484 13.0933 106.122 13.1089C105.785 13.1112 105.638 13.0286 105.601 12.6796C105.549 12.1752 105.445 11.6767 105.359 11.176C105.276 10.6879 105.275 10.6871 105.771 10.6871C108.443 10.6871 111.115 10.6827 113.787 10.6931C114.1 10.6946 114.225 10.6284 114.213 10.2846C114.187 9.51679 114.19 8.74747 114.212 7.97964C114.221 7.65822 114.136 7.55629 113.802 7.55778C109.682 7.56894 105.563 7.5682 101.442 7.55927C101.129 7.55927 101.031 7.6359 101.084 7.95881C101.354 9.5964 101.615 11.2355 101.862 12.8768C101.952 13.475 102.168 14.0747 102.082 14.6758C101.777 16.797 101.428 18.9108 101.094 21.0276C101.027 21.4487 101.036 21.4643 101.472 21.4643C103.539 21.465 105.604 21.4643 107.671 21.4643L107.67 21.4636ZM75.7326 7.56448C74.9901 7.56448 74.2476 7.5801 73.5059 7.55703C73.2126 7.54811 73.0685 7.64781 72.9468 7.9097C70.9012 12.3128 68.8481 16.713 66.7892 21.1101C66.6578 21.3914 66.6971 21.4717 67.0127 21.4688C68.1881 21.4569 69.3634 21.4583 70.5388 21.4688C70.7727 21.471 70.8945 21.3877 70.9851 21.1749C71.2858 20.4688 71.611 19.7724 71.9125 19.0663C71.9986 18.8647 72.1144 18.794 72.332 18.7947C74.5959 18.8014 76.8605 18.8022 79.1244 18.7947C79.3471 18.794 79.4548 18.8781 79.5387 19.0745C79.8461 19.7917 80.1735 20.5 80.4802 21.2173C80.5544 21.3906 80.6502 21.468 80.8388 21.4673C82.0639 21.4628 83.2883 21.4636 84.5134 21.4665C84.7132 21.4665 84.7949 21.4107 84.6894 21.2054C84.5877 21.0075 84.5001 20.8021 84.4058 20.5997C82.4322 16.3677 80.4572 12.1365 78.4903 7.90152C78.3752 7.6545 78.2386 7.55257 77.9594 7.56001C77.2176 7.5801 76.4751 7.56671 75.7326 7.56671V7.56448ZM91.3125 17.8498C91.0556 17.2911 90.8336 16.8127 90.6153 16.3328C89.339 13.5256 88.0633 10.7184 86.787 7.91119C86.7061 7.73411 86.6548 7.5548 86.3838 7.55852C85.1594 7.57192 83.9343 7.56968 82.7099 7.56076C82.4367 7.55852 82.4278 7.65153 82.5317 7.86357C82.8644 8.54212 83.1859 9.22588 83.5111 9.9074C85.3042 13.6625 87.0981 17.4168 88.8883 21.1726C88.9744 21.3527 89.062 21.4703 89.2959 21.4688C90.6072 21.4576 91.9184 21.4598 93.2297 21.4658C93.4309 21.4665 93.546 21.3944 93.6269 21.2091C93.7858 20.846 93.9647 20.4926 94.1355 20.1347C96.0779 16.0672 98.0203 12.0003 99.9619 7.93277C100.136 7.5682 100.134 7.56522 99.7228 7.56448C98.5846 7.56299 97.4463 7.57192 96.3081 7.55852C96.0467 7.55555 95.9131 7.64185 95.8062 7.88068C94.6983 10.356 93.5801 12.8269 92.4641 15.2986C92.0929 16.1207 91.7217 16.9421 91.3118 17.8491L91.3125 17.8498ZM42.9586 7.56448C40.6205 7.56448 38.2816 7.57117 35.9434 7.55703C35.6115 7.5548 35.5224 7.6545 35.5299 7.97741C35.5507 8.83229 35.5544 9.68866 35.5284 10.5428C35.5173 10.9029 35.6516 10.9728 35.9769 10.9699C37.4982 10.9557 39.0204 10.9751 40.5418 10.955C40.9063 10.9505 40.9939 11.0629 40.9925 11.4163C40.9791 14.5895 40.985 17.7628 40.985 20.9368C40.985 21.28 41.1496 21.4519 41.4788 21.4524C42.4812 21.4524 43.4836 21.4353 44.4852 21.4613C44.8631 21.471 44.9596 21.3609 44.9574 20.9844C44.9418 17.7866 44.9544 14.588 44.9403 11.3895C44.9389 11.0405 45.0458 10.9535 45.3784 10.9572C46.9124 10.9728 48.4464 10.9572 49.9804 10.9699C50.2812 10.9721 50.391 10.8962 50.3836 10.5785C50.3628 9.71098 50.3621 8.84271 50.3836 7.97592C50.3918 7.65078 50.3027 7.55555 49.9715 7.55778C47.6334 7.57192 45.2945 7.56522 42.9564 7.56522L42.9586 7.56448ZM116.572 14.5017C116.572 16.6951 116.577 18.8892 116.567 21.0826C116.566 21.3639 116.633 21.4703 116.936 21.4695C120.968 21.4606 125.001 21.4613 129.033 21.4695C129.324 21.4695 129.418 21.3854 129.413 21.0915C129.395 20.2121 129.391 19.3312 129.414 18.4518C129.423 18.1065 129.315 18.015 128.976 18.0172C126.304 18.0299 123.632 18.0172 120.961 18.0321C120.6 18.0344 120.508 17.9287 120.509 17.5738C120.523 14.376 120.513 11.1789 120.523 7.98113C120.524 7.66343 120.452 7.54959 120.114 7.55629C119.075 7.57787 118.036 7.57861 116.997 7.55629C116.652 7.54885 116.563 7.65748 116.565 7.99452C116.579 10.1633 116.572 12.3322 116.572 14.501V14.5017Z" fill="#30C1B0"/>
<path d="M28.5388 46.349C27.6419 47.2218 26.8273 48.0134 26.0135 48.8065C23.6019 51.1562 21.1858 53.5021 18.7868 55.8643C18.5083 56.1381 18.3717 56.1285 18.0977 55.8591C15.0164 52.8324 11.9201 49.8199 8.82537 46.8066C8.74296 46.7263 8.68578 46.5983 8.53283 46.5953C8.46378 46.7374 8.49942 46.8862 8.49942 47.0283C8.49719 53.6367 8.49348 60.2444 8.50684 66.8528C8.50758 67.2375 8.40215 67.3208 8.03387 67.3178C5.49748 67.3014 2.96035 67.3037 0.423968 67.3156C0.114345 67.3171 0 67.2613 0 66.9153C0.00965252 56.2654 0.00965252 45.6154 0.001485 34.9655C0.001485 34.6441 0.0749927 34.5474 0.409118 34.5488C2.8965 34.5637 5.38314 34.5593 7.87052 34.5541C8.19128 34.5541 8.42888 34.5823 8.67465 34.8851C9.12386 35.4387 9.68371 35.9037 10.1975 36.4044C12.7866 38.9267 15.3765 41.4474 17.9641 43.9704C18.4549 44.4488 18.4475 44.4488 18.9338 43.9741C22.0894 40.8983 25.2473 37.8263 28.3992 34.7475C28.5455 34.6046 28.6888 34.5526 28.887 34.5533C31.4858 34.5585 34.0838 34.5615 36.6826 34.5503C36.9795 34.5488 37.0553 34.6418 37.0545 34.9298C37.0479 45.6043 37.0479 56.2788 37.056 66.954C37.056 67.268 36.9387 67.3148 36.6677 67.3141C34.1061 67.3059 31.5452 67.3022 28.9836 67.3178C28.6323 67.32 28.5284 67.2419 28.5291 66.8744C28.541 60.2169 28.538 53.5594 28.538 46.9011C28.538 46.756 28.538 46.6109 28.538 46.3498L28.5388 46.349Z" fill="#30C1B0"/>
<path d="M72.1102 51.6348C71.8392 57.1011 68.9078 61.8405 63.2604 64.8464C60.7284 66.1946 57.9879 66.7429 55.1285 66.6402C47.1451 66.3545 40.4893 60.4924 39.4884 52.7293C38.8722 47.9474 40.2302 43.7147 43.4571 40.1419C46.3529 36.9359 50.0052 35.1941 54.3058 34.7924C61.1049 34.1577 67.7317 37.9054 70.6237 44.048C71.6157 46.1536 72.1013 48.3745 72.1095 51.6341L72.1102 51.6348ZM48.2017 50.6906C48.192 51.3015 48.2618 51.9026 48.4237 52.4919C49.778 57.4345 55.6185 59.6204 59.9117 56.7909C62.9247 54.8051 64.1142 51.1214 62.6604 47.8574C61.3655 44.949 59.0088 43.4684 55.8457 43.3561C51.6966 43.208 48.2017 46.5896 48.2017 50.6914V50.6906Z" fill="#30C1B0"/>
<path d="M113.797 51.0024C113.797 45.6722 113.801 40.3421 113.789 35.0119C113.788 34.6496 113.885 34.5632 114.241 34.564C121.75 34.5744 129.26 34.5751 136.769 34.5625C137.156 34.5625 137.234 34.6719 137.232 35.0387C137.216 37.5178 137.216 39.9968 137.232 42.4759C137.234 42.8234 137.133 42.906 136.798 42.9052C132.133 42.8948 127.469 42.9022 122.805 42.8896C122.438 42.8889 122.317 42.9677 122.329 43.3561C122.36 44.3099 122.361 45.2653 122.329 46.2191C122.316 46.6142 122.45 46.6849 122.81 46.6826C125.198 46.667 127.586 46.6819 129.973 46.6663C130.319 46.664 130.4 46.7652 130.399 47.1008C130.385 49.5925 130.385 52.0842 130.399 54.5752C130.4 54.8951 130.33 54.9948 129.994 54.9926C127.594 54.977 125.194 54.9948 122.794 54.974C122.401 54.9703 122.324 55.0908 122.332 55.4539C122.355 56.5565 122.352 57.6607 122.332 58.7633C122.327 59.0743 122.418 59.1547 122.724 59.1539C127.388 59.1443 132.052 59.1465 136.716 59.1487C137.29 59.1487 137.222 59.0788 137.223 59.6695C137.225 62.136 137.217 64.6031 137.232 67.0696C137.234 67.4044 137.137 67.4773 136.816 67.4773C129.368 67.4684 121.92 67.4706 114.472 67.4706C114.422 67.4706 114.373 67.4721 114.324 67.4706C113.973 67.4542 113.797 67.2707 113.797 66.92C113.797 61.6144 113.797 56.3088 113.797 51.0039V51.0024Z" fill="#30C1B0"/>
<path d="M91.0515 67.6108C90.1976 67.6108 89.3437 67.5997 88.4906 67.6175C88.2174 67.6235 88.0733 67.5245 87.9374 67.2939C85.7359 63.5626 83.5247 59.8366 81.3158 56.109C77.7882 50.1553 74.2635 44.2002 70.7248 38.254C70.5221 37.9139 70.577 37.7852 70.8948 37.5791C73.1149 36.138 75.3238 34.6789 77.5246 33.208C77.8298 33.0041 77.9456 33.048 78.1238 33.3531C82.3471 40.5634 86.5809 47.7678 90.8131 54.9729C91.0537 55.3828 91.053 55.3799 91.2898 54.9773C94.9949 48.6688 98.7007 42.361 102.407 36.0524C102.958 35.1127 103.515 34.1767 104.059 33.2326C104.169 33.0421 104.245 32.9989 104.451 33.1306C106.712 34.5763 108.98 36.013 111.25 37.4452C111.457 37.5754 111.512 37.6699 111.374 37.905C107.018 45.3251 102.67 52.7505 98.3213 60.1743C96.9321 62.5455 95.5399 64.9152 94.1633 67.2939C94.0155 67.5483 93.8544 67.6235 93.5767 67.6175C92.7355 67.6004 91.8942 67.6116 91.053 67.6116L91.0515 67.6108Z" fill="#30C1B0"/>
<path d="M152.693 68.2722C149.702 68.2291 146.485 67.5475 143.341 66.4724C142.394 66.1488 141.462 65.782 140.536 65.401C140.29 65.2998 140.26 65.2061 140.368 64.9717C141.359 62.8245 142.341 60.6735 143.315 58.5188C143.419 58.2904 143.502 58.2443 143.745 58.3484C146.144 59.3737 148.619 60.143 151.219 60.4414C152.799 60.6229 154.376 60.6452 155.928 60.1839C157.156 59.8194 157.795 58.9489 158.073 57.7592C158.171 57.3395 158.064 56.9363 157.794 56.6037C157.201 55.8731 156.518 55.359 155.495 55.3039C152.64 55.1491 149.841 54.6387 147.188 53.5435C144.187 52.3047 142.099 50.1419 141.157 47.0036C140.147 43.6413 141.004 40.6355 143.168 37.9697C144.715 36.0627 146.788 34.94 149.071 34.1499C153.004 32.789 156.944 32.9252 160.895 34.0516C162.193 34.4222 163.448 34.9073 164.678 35.4653C164.938 35.5828 164.957 35.6885 164.832 35.9325C163.758 38.0247 162.692 40.1221 161.637 42.2232C161.51 42.474 161.4 42.4866 161.157 42.3758C159.142 41.4628 157.049 40.8743 154.817 40.8773C153.292 40.8795 151.856 41.2523 150.492 41.9182C149.951 42.1823 149.483 42.5417 149.134 43.0424C148.339 44.1815 148.586 45.433 149.759 46.1844C150.362 46.5706 151.041 46.767 151.727 46.9322C153.207 47.2893 154.693 47.6048 156.224 47.6442C158.708 47.7089 160.78 48.7677 162.615 50.3569C164.18 51.7118 165.281 53.3709 165.756 55.4125C166.306 57.7793 165.899 60.0098 164.8 62.1422C163.051 65.5364 160.168 67.3139 156.507 67.9783C155.359 68.1866 154.202 68.2796 152.693 68.273V68.2722Z" fill="#30C1B0"/>
<path d="M58.3067 13.6139C57.6399 13.6139 56.9724 13.6065 56.3057 13.6184C56.0792 13.6221 56.0057 13.5455 56.0079 13.3193C56.0176 12.4533 56.0198 11.5865 56.0079 10.7204C56.0042 10.4675 56.1052 10.4087 56.3368 10.4102C57.5842 10.4191 58.8316 10.4117 60.079 10.4213C60.3114 10.4228 60.5491 10.4556 60.7748 10.5121C61.5648 10.7108 61.9799 11.2472 61.9747 12.0329C61.9695 12.8067 61.5314 13.3431 60.7466 13.5381C60.529 13.5924 60.3092 13.6139 60.0857 13.6132C59.4932 13.6117 58.9 13.6132 58.3074 13.6132L58.3067 13.6139Z" fill="#30C1B0"/>
<path d="M75.7274 10.498C76.1736 11.4988 76.5768 12.3998 76.977 13.3015C77.2829 13.9905 77.5792 14.6847 77.894 15.3699C77.9987 15.5983 78.0039 15.695 77.7039 15.6921C76.383 15.6809 75.0613 15.6883 73.7397 15.6854C73.6068 15.6854 73.4004 15.7389 73.5206 15.4681C74.2431 13.8432 74.9641 12.2175 75.7274 10.498Z" fill="#30C1B0"/>
</svg>
